<?xml version="1.0" encoding="UTF-8" standalone="no"?><!DOCTYPE svg PUBLIC "-//W3C//DTD SVG 1.1//EN" "http://www.w3.org/Graphics/SVG/1.1/DTD/svg11.dtd"><svg width="100%" height="100%" viewBox="0 0 732 732" version="1.1" xmlns="http://www.w3.org/2000/svg" xmlns:xlink="http://www.w3.org/1999/xlink" xml:space="preserve" xmlns:serif="http://www.serif.com/" style="fill-rule:evenodd;clip-rule:evenodd;stroke-linejoin:round;stroke-miterlimit:2;"><path d="M310.276,673.625c0.457,-0.457 -20.127,-0.457 -19.213,-0.457l109.784,0c2.745,-0.915 5.49,-3.202 5.49,-6.404c-0,-3.202 -2.288,-5.947 -5.49,-6.404l-89.199,-0c-16.01,-0 -28.818,-13.266 -28.818,-29.276c-0,-14.18 10.521,-26.073 24.244,-28.361c0.914,-0.457 -6.404,-0.457 -5.947,-0.457l102.007,-0c3.203,-0.457 5.49,-3.202 5.49,-6.404c-0,-3.66 -3.202,-6.404 -6.862,-6.404c-36.594,-0 -73.646,0.915 -110.699,0.915c-7.318,-0 -12.35,-7.777 -14.18,-13.723c-9.606,-28.361 -15.553,-65.871 -36.595,-86.912c-55.349,-55.35 -75.476,-135.4 -42.998,-208.59c30.19,-68.157 96.518,-109.784 171.08,-110.241c153.697,-1.372 241.981,177.484 150.037,299.161c7.319,9.606 11.436,21.499 11.436,33.85c0,29.733 -24.244,54.434 -53.977,54.434c-30.19,0 -54.434,-24.701 -54.434,-54.434c-0,-30.191 24.244,-54.435 54.434,-54.435c8.691,0 16.925,2.288 24.244,5.947c80.051,-106.582 2.287,-262.566 -131.283,-261.194c-65.413,0.458 -123.507,36.595 -150.495,96.518c-28.361,64.041 -10.521,134.028 38.424,182.516c25.616,25.616 30.191,59.924 41.169,93.316l-0,0.458l103.837,-0c16.01,-0 29.276,12.808 29.276,28.818c-0,14.18 -10.521,26.531 -24.244,28.818l-15.553,0l13.266,0l-93.774,0c-3.202,0.915 -5.489,3.66 -5.489,6.404c-0,3.202 2.287,5.947 5.489,6.404l88.742,0c16.01,0 29.276,13.266 29.276,29.276c-0,14.18 -10.521,26.074 -24.702,28.361c-0.457,0.457 12.351,0.457 11.436,0.457l-102.007,0c-2.745,0.458 -5.032,3.202 -5.032,6.404c-0,3.66 2.745,6.404 6.404,6.404c9.606,0 33.393,-0.457 42.999,0c94.231,6.862 166.048,-25.158 234.205,-91.029c61.754,-59.923 96.518,-144.091 96.518,-229.631c0,-31.563 -4.574,-62.211 -13.265,-91.486l-0.458,-0c-11.435,-39.34 -30.648,-76.392 -56.264,-108.869l-0.915,-0c-38.881,-49.403 -91.944,-86.913 -153.24,-106.582l0,-1.373l-0.457,0.915c-15.553,-5.031 -31.563,-8.691 -48.03,-10.978c-1.373,5.032 -3.66,10.063 -6.862,15.095c-16.925,24.702 -50.317,31.563 -75.476,15.096c-10.521,-7.319 -18.298,-17.84 -21.957,-29.734c-152.325,25.617 -268.513,158.272 -268.513,317.916c-0,40.712 7.776,81.423 22.872,119.39c6.404,-3.202 13.723,-4.574 21.042,-4.574c30.19,-0 54.434,24.244 54.434,54.434c0,29.733 -24.244,53.977 -54.434,53.977c-29.734,0 -53.978,-24.244 -53.978,-53.977c0,-13.723 4.575,-26.531 13.723,-36.594c-17.382,-42.084 -26.531,-86.913 -26.531,-132.656c0,-171.08 124.879,-313.341 288.64,-340.33c0,-0.915 0.458,-2.287 0.458,-3.202l0.915,0c1.372,-6.861 4.117,-13.723 8.233,-20.127c16.468,-24.701 50.318,-31.563 75.477,-15.095c13.265,9.149 21.499,22.872 23.329,37.509c19.669,2.745 38.882,7.777 57.636,13.723l0,0.458c35.223,11.893 68.158,29.275 97.434,51.232l-0,-0.457c32.02,24.244 59.008,52.605 80.508,85.082l0.457,0c36.595,54.892 57.637,120.305 57.637,191.207c-0,108.412 -50.775,209.962 -137.688,275.832c-93.773,64.498 -148.208,69.072 -258.449,67.243c-16.01,-0 -29.276,-12.809 -29.276,-28.819c0,-14.18 10.521,-26.531 24.702,-28.361Zm83.71,-607.013l-0,-0.457c0.457,-0.457 0.457,-0.915 0.457,-1.372l0.458,-0.458l-0,-1.372l0.457,-0.458l0,-0.914l0.458,-0.915l-0,-2.287l0.457,-0.458l-0,-7.319l-0.457,-0.457l-0,-2.287l-0.458,-0.915l0,-0.915l-0.457,-0.458l-0,-1.372l-0.458,0l0,-0.457c-2.287,-6.404 -6.404,-12.351 -12.808,-16.468c-14.638,-10.063 -35.222,-5.946 -45.286,9.149c-1.372,2.287 -2.744,5.032 -3.659,7.776l-0,0.915l-0.458,0l0,1.372l-0.457,0l-0,2.288l-0.457,-0l-0,10.52l0.457,0.458l-0,1.83l0.457,0.457l0,1.372l0.458,0.458l-0,0.915l0.457,0.457l0,0.915l0.458,0.457c2.287,5.947 6.404,10.979 11.893,14.638c15.095,10.064 35.222,5.947 45.286,-8.691c1.372,-2.287 2.287,-4.117 3.202,-5.947Zm107.039,416.264c-3.202,-3.202 -6.861,-5.947 -10.521,-8.234c-4.574,-2.287 -9.606,-3.202 -14.638,-3.202c-17.84,0 -32.477,14.638 -32.477,32.478c-0,17.84 14.18,32.478 32.477,32.478c17.84,-0 32.478,-14.638 32.478,-32.478c-0,-7.776 -2.745,-15.095 -7.319,-21.042Zm-413.976,106.582c18.297,-0 32.477,-14.638 32.477,-32.478c0,-18.297 -14.18,-32.935 -32.477,-32.935c-17.84,0 -32.478,14.638 -32.478,32.935c-0,17.84 14.638,32.478 32.478,32.478Z"/></svg>